<mxfile host="app.diagrams.net" modified="2021-06-03T04:23:54.138Z" agent="5.0 (Windows NT 10.0; Win64; x64) AppleWebKit/537.36 (KHTML, like Gecko) Chrome/91.0.4472.77 Safari/537.36 Edg/91.0.864.37" etag="UG-HgcQJd07-F89tELZ_" version="14.6.10" type="github">
  <diagram id="R2lEEEUBdFMjLlhIrx00" name="Page-1">
    <mxGraphModel dx="1038" dy="583" grid="1" gridSize="10" guides="1" tooltips="1" connect="1" arrows="1" fold="1" page="1" pageScale="1" pageWidth="850" pageHeight="1100" math="0" shadow="0" extFonts="Permanent Marker^https://fonts.googleapis.com/css?family=Permanent+Marker">
      <root>
        <mxCell id="0" />
        <mxCell id="1" parent="0" />
        <mxCell id="JLXV0XZNVWzaatGmjZRa-2" value="&lt;span style=&quot;font-size: 23px&quot;&gt;commander&lt;/span&gt;" style="html=1;shadow=0;dashed=0;shape=mxgraph.bootstrap.rrect;rSize=5;strokeWidth=1;whiteSpace=wrap;align=center;verticalAlign=middle;spacingLeft=0;fontStyle=1;fontSize=14;spacing=5;fillColor=#dae8fc;strokeColor=#6c8ebf;" parent="1" vertex="1">
          <mxGeometry x="340" y="200" width="170" height="40" as="geometry" />
        </mxCell>
        <mxCell id="-CWAdAWY8tNQ3LEmiGtp-6" style="edgeStyle=none;rounded=0;orthogonalLoop=1;jettySize=auto;html=1;startArrow=classic;startFill=1;endArrow=none;endFill=0;" edge="1" parent="1" source="JLXV0XZNVWzaatGmjZRa-3" target="JLXV0XZNVWzaatGmjZRa-10">
          <mxGeometry relative="1" as="geometry">
            <Array as="points">
              <mxPoint x="260" y="420" />
            </Array>
          </mxGeometry>
        </mxCell>
        <mxCell id="JLXV0XZNVWzaatGmjZRa-3" value="&lt;span style=&quot;font-size: 23px&quot;&gt;gate&lt;/span&gt;" style="html=1;shadow=0;dashed=0;shape=mxgraph.bootstrap.rrect;rSize=5;strokeWidth=1;whiteSpace=wrap;align=center;verticalAlign=middle;spacingLeft=0;fontStyle=1;fontSize=14;spacing=5;fillColor=#b0e3e6;strokeColor=#0e8088;" parent="1" vertex="1">
          <mxGeometry x="60" y="540" width="470" height="40" as="geometry" />
        </mxCell>
        <mxCell id="JLXV0XZNVWzaatGmjZRa-17" style="edgeStyle=none;rounded=0;orthogonalLoop=1;jettySize=auto;html=1;" parent="1" source="JLXV0XZNVWzaatGmjZRa-4" target="JLXV0XZNVWzaatGmjZRa-7" edge="1">
          <mxGeometry relative="1" as="geometry" />
        </mxCell>
        <mxCell id="-CWAdAWY8tNQ3LEmiGtp-3" style="edgeStyle=none;rounded=0;orthogonalLoop=1;jettySize=auto;html=1;entryX=0.831;entryY=1.03;entryDx=0;entryDy=0;entryPerimeter=0;startArrow=classic;startFill=1;endArrow=none;endFill=0;" edge="1" parent="1" source="JLXV0XZNVWzaatGmjZRa-4" target="JLXV0XZNVWzaatGmjZRa-2">
          <mxGeometry relative="1" as="geometry" />
        </mxCell>
        <mxCell id="-CWAdAWY8tNQ3LEmiGtp-12" style="edgeStyle=none;rounded=0;orthogonalLoop=1;jettySize=auto;html=1;startArrow=classic;startFill=1;endArrow=none;endFill=0;" edge="1" parent="1" source="JLXV0XZNVWzaatGmjZRa-4" target="JLXV0XZNVWzaatGmjZRa-6">
          <mxGeometry relative="1" as="geometry" />
        </mxCell>
        <mxCell id="JLXV0XZNVWzaatGmjZRa-4" value="&lt;span style=&quot;font-size: 23px&quot;&gt;room&lt;/span&gt;" style="html=1;shadow=0;dashed=0;shape=mxgraph.bootstrap.rrect;rSize=5;strokeWidth=1;whiteSpace=wrap;align=center;verticalAlign=middle;spacingLeft=0;fontStyle=1;fontSize=14;spacing=5;fillColor=#60a917;strokeColor=#2D7600;fontColor=#ffffff;" parent="1" vertex="1">
          <mxGeometry x="470" y="310" width="170" height="40" as="geometry" />
        </mxCell>
        <mxCell id="JLXV0XZNVWzaatGmjZRa-15" style="edgeStyle=none;rounded=0;orthogonalLoop=1;jettySize=auto;html=1;entryX=0.137;entryY=0.005;entryDx=0;entryDy=0;entryPerimeter=0;" parent="1" source="JLXV0XZNVWzaatGmjZRa-5" target="JLXV0XZNVWzaatGmjZRa-7" edge="1">
          <mxGeometry relative="1" as="geometry" />
        </mxCell>
        <mxCell id="JLXV0XZNVWzaatGmjZRa-76" style="edgeStyle=none;rounded=0;orthogonalLoop=1;jettySize=auto;html=1;startArrow=none;startFill=0;endArrow=classic;endFill=1;strokeColor=#000000;strokeWidth=1;" parent="1" source="JLXV0XZNVWzaatGmjZRa-5" target="JLXV0XZNVWzaatGmjZRa-3" edge="1">
          <mxGeometry relative="1" as="geometry" />
        </mxCell>
        <mxCell id="-CWAdAWY8tNQ3LEmiGtp-1" style="rounded=0;orthogonalLoop=1;jettySize=auto;html=1;startArrow=classic;startFill=1;endArrow=none;endFill=0;" edge="1" parent="1" source="JLXV0XZNVWzaatGmjZRa-5">
          <mxGeometry relative="1" as="geometry">
            <mxPoint x="337" y="223" as="targetPoint" />
          </mxGeometry>
        </mxCell>
        <mxCell id="-CWAdAWY8tNQ3LEmiGtp-11" style="edgeStyle=none;rounded=0;orthogonalLoop=1;jettySize=auto;html=1;startArrow=classic;startFill=1;endArrow=none;endFill=0;" edge="1" parent="1" source="JLXV0XZNVWzaatGmjZRa-5" target="JLXV0XZNVWzaatGmjZRa-10">
          <mxGeometry relative="1" as="geometry" />
        </mxCell>
        <mxCell id="-CWAdAWY8tNQ3LEmiGtp-13" style="edgeStyle=orthogonalEdgeStyle;rounded=0;orthogonalLoop=1;jettySize=auto;html=1;startArrow=classic;startFill=1;endArrow=none;endFill=0;entryX=0.544;entryY=0;entryDx=0;entryDy=0;entryPerimeter=0;" edge="1" parent="1" source="JLXV0XZNVWzaatGmjZRa-5" target="JLXV0XZNVWzaatGmjZRa-6">
          <mxGeometry relative="1" as="geometry">
            <mxPoint x="125" y="250" as="targetPoint" />
            <Array as="points">
              <mxPoint x="125" y="190" />
              <mxPoint x="773" y="190" />
            </Array>
          </mxGeometry>
        </mxCell>
        <mxCell id="JLXV0XZNVWzaatGmjZRa-5" value="&lt;span style=&quot;font-size: 23px&quot;&gt;game&lt;/span&gt;" style="html=1;shadow=0;dashed=0;shape=mxgraph.bootstrap.rrect;rSize=5;strokeWidth=1;whiteSpace=wrap;align=center;verticalAlign=middle;spacingLeft=0;fontStyle=1;fontSize=14;spacing=5;fillColor=#d5e8d4;strokeColor=#82b366;" parent="1" vertex="1">
          <mxGeometry x="40" y="310" width="170" height="40" as="geometry" />
        </mxCell>
        <mxCell id="JLXV0XZNVWzaatGmjZRa-18" style="edgeStyle=none;rounded=0;orthogonalLoop=1;jettySize=auto;html=1;" parent="1" source="JLXV0XZNVWzaatGmjZRa-6" target="JLXV0XZNVWzaatGmjZRa-7" edge="1">
          <mxGeometry relative="1" as="geometry" />
        </mxCell>
        <mxCell id="-CWAdAWY8tNQ3LEmiGtp-4" style="edgeStyle=none;rounded=0;orthogonalLoop=1;jettySize=auto;html=1;entryX=1.024;entryY=0.59;entryDx=0;entryDy=0;entryPerimeter=0;startArrow=classic;startFill=1;endArrow=none;endFill=0;" edge="1" parent="1" source="JLXV0XZNVWzaatGmjZRa-6" target="JLXV0XZNVWzaatGmjZRa-2">
          <mxGeometry relative="1" as="geometry" />
        </mxCell>
        <mxCell id="JLXV0XZNVWzaatGmjZRa-6" value="&lt;span style=&quot;font-size: 23px&quot;&gt;battlemgr&lt;/span&gt;" style="html=1;shadow=0;dashed=0;shape=mxgraph.bootstrap.rrect;rSize=5;strokeWidth=1;whiteSpace=wrap;align=center;verticalAlign=middle;spacingLeft=0;fontStyle=1;fontSize=14;spacing=5;fillColor=#6d8764;strokeColor=#3A5431;fontColor=#ffffff;" parent="1" vertex="1">
          <mxGeometry x="680" y="310" width="170" height="40" as="geometry" />
        </mxCell>
        <mxCell id="JLXV0XZNVWzaatGmjZRa-77" style="edgeStyle=none;rounded=0;orthogonalLoop=1;jettySize=auto;html=1;startArrow=classic;startFill=1;endArrow=none;endFill=0;strokeColor=#000000;strokeWidth=1;" parent="1" source="JLXV0XZNVWzaatGmjZRa-7" target="JLXV0XZNVWzaatGmjZRa-3" edge="1">
          <mxGeometry relative="1" as="geometry" />
        </mxCell>
        <mxCell id="JLXV0XZNVWzaatGmjZRa-80" style="edgeStyle=none;rounded=0;orthogonalLoop=1;jettySize=auto;html=1;startArrow=classic;startFill=1;endArrow=none;endFill=0;strokeColor=#000000;strokeWidth=1;" parent="1" source="JLXV0XZNVWzaatGmjZRa-7" edge="1">
          <mxGeometry relative="1" as="geometry">
            <mxPoint x="433" y="240" as="targetPoint" />
            <Array as="points">
              <mxPoint x="440" y="360" />
            </Array>
          </mxGeometry>
        </mxCell>
        <mxCell id="JLXV0XZNVWzaatGmjZRa-7" value="&lt;span style=&quot;font-size: 23px&quot;&gt;world(router)&lt;/span&gt;" style="html=1;shadow=0;dashed=0;shape=mxgraph.bootstrap.rrect;rSize=5;strokeWidth=1;whiteSpace=wrap;align=center;verticalAlign=middle;spacingLeft=0;fontStyle=1;fontSize=14;spacing=5;fillColor=#647687;strokeColor=#314354;fontColor=#ffffff;" parent="1" vertex="1">
          <mxGeometry x="285" y="420" width="280" height="40" as="geometry" />
        </mxCell>
        <mxCell id="JLXV0XZNVWzaatGmjZRa-11" style="edgeStyle=none;orthogonalLoop=1;jettySize=auto;html=1;entryX=0.502;entryY=1.021;entryDx=0;entryDy=0;entryPerimeter=0;rounded=0;" parent="1" source="JLXV0XZNVWzaatGmjZRa-8" target="JLXV0XZNVWzaatGmjZRa-3" edge="1">
          <mxGeometry relative="1" as="geometry" />
        </mxCell>
        <mxCell id="JLXV0XZNVWzaatGmjZRa-12" style="edgeStyle=none;rounded=0;orthogonalLoop=1;jettySize=auto;html=1;strokeColor=#67AB9F;" parent="1" source="JLXV0XZNVWzaatGmjZRa-8" target="JLXV0XZNVWzaatGmjZRa-9" edge="1">
          <mxGeometry relative="1" as="geometry" />
        </mxCell>
        <mxCell id="JLXV0XZNVWzaatGmjZRa-8" value="&lt;span style=&quot;font-size: 23px&quot;&gt;clients&lt;/span&gt;" style="html=1;shadow=0;dashed=0;shape=mxgraph.bootstrap.rrect;rSize=5;strokeWidth=1;whiteSpace=wrap;align=center;verticalAlign=middle;spacingLeft=0;fontStyle=1;fontSize=14;spacing=5;fillColor=#fff2cc;strokeColor=#d6b656;gradientColor=#ffd966;" parent="1" vertex="1">
          <mxGeometry x="340" y="680" width="170" height="40" as="geometry" />
        </mxCell>
        <mxCell id="JLXV0XZNVWzaatGmjZRa-14" style="edgeStyle=none;rounded=0;orthogonalLoop=1;jettySize=auto;html=1;" parent="1" source="JLXV0XZNVWzaatGmjZRa-9" target="JLXV0XZNVWzaatGmjZRa-7" edge="1">
          <mxGeometry relative="1" as="geometry" />
        </mxCell>
        <mxCell id="-CWAdAWY8tNQ3LEmiGtp-5" style="edgeStyle=none;rounded=0;orthogonalLoop=1;jettySize=auto;html=1;entryX=1.002;entryY=0.55;entryDx=0;entryDy=0;entryPerimeter=0;startArrow=classic;startFill=1;endArrow=none;endFill=0;" edge="1" parent="1" source="JLXV0XZNVWzaatGmjZRa-9" target="JLXV0XZNVWzaatGmjZRa-3">
          <mxGeometry relative="1" as="geometry" />
        </mxCell>
        <mxCell id="-CWAdAWY8tNQ3LEmiGtp-9" style="edgeStyle=none;rounded=0;orthogonalLoop=1;jettySize=auto;html=1;entryX=0.473;entryY=0.98;entryDx=0;entryDy=0;entryPerimeter=0;startArrow=classic;startFill=1;endArrow=none;endFill=0;" edge="1" parent="1" source="JLXV0XZNVWzaatGmjZRa-9" target="JLXV0XZNVWzaatGmjZRa-6">
          <mxGeometry relative="1" as="geometry" />
        </mxCell>
        <mxCell id="JLXV0XZNVWzaatGmjZRa-9" value="&lt;span style=&quot;font-size: 23px&quot;&gt;battle&lt;/span&gt;" style="html=1;shadow=0;dashed=0;shape=mxgraph.bootstrap.rrect;rSize=5;strokeWidth=1;whiteSpace=wrap;align=center;verticalAlign=middle;spacingLeft=0;fontStyle=1;fontSize=14;spacing=5;fillColor=#bac8d3;strokeColor=#23445d;" parent="1" vertex="1">
          <mxGeometry x="590" y="540" width="260" height="40" as="geometry" />
        </mxCell>
        <mxCell id="JLXV0XZNVWzaatGmjZRa-16" style="edgeStyle=none;rounded=0;orthogonalLoop=1;jettySize=auto;html=1;" parent="1" source="JLXV0XZNVWzaatGmjZRa-10" target="JLXV0XZNVWzaatGmjZRa-7" edge="1">
          <mxGeometry relative="1" as="geometry" />
        </mxCell>
        <mxCell id="-CWAdAWY8tNQ3LEmiGtp-2" style="edgeStyle=none;rounded=0;orthogonalLoop=1;jettySize=auto;html=1;entryX=0.233;entryY=1.03;entryDx=0;entryDy=0;entryPerimeter=0;startArrow=classic;startFill=1;endArrow=none;endFill=0;" edge="1" parent="1" source="JLXV0XZNVWzaatGmjZRa-10" target="JLXV0XZNVWzaatGmjZRa-2">
          <mxGeometry relative="1" as="geometry" />
        </mxCell>
        <mxCell id="-CWAdAWY8tNQ3LEmiGtp-10" style="edgeStyle=none;rounded=0;orthogonalLoop=1;jettySize=auto;html=1;startArrow=classic;startFill=1;endArrow=none;endFill=0;" edge="1" parent="1" source="JLXV0XZNVWzaatGmjZRa-10" target="JLXV0XZNVWzaatGmjZRa-4">
          <mxGeometry relative="1" as="geometry" />
        </mxCell>
        <mxCell id="JLXV0XZNVWzaatGmjZRa-10" value="&lt;span style=&quot;font-size: 23px&quot;&gt;match&lt;/span&gt;" style="html=1;shadow=0;dashed=0;shape=mxgraph.bootstrap.rrect;rSize=5;strokeWidth=1;whiteSpace=wrap;align=center;verticalAlign=middle;spacingLeft=0;fontStyle=1;fontSize=14;spacing=5;fillColor=#e1d5e7;strokeColor=#9673a6;" parent="1" vertex="1">
          <mxGeometry x="255" y="310" width="165" height="40" as="geometry" />
        </mxCell>
        <mxCell id="JLXV0XZNVWzaatGmjZRa-29" value="&lt;font style=&quot;font-size: 15px&quot;&gt;kcp&lt;/font&gt;" style="text;html=1;resizable=0;autosize=1;align=center;verticalAlign=middle;points=[];fillColor=none;strokeColor=none;rounded=0;" parent="1" vertex="1">
          <mxGeometry x="560" y="630" width="40" height="20" as="geometry" />
        </mxCell>
        <mxCell id="JLXV0XZNVWzaatGmjZRa-30" value="&lt;font style=&quot;font-size: 15px&quot;&gt;tcp&lt;/font&gt;" style="text;html=1;resizable=0;autosize=1;align=center;verticalAlign=middle;points=[];fillColor=none;strokeColor=none;rounded=0;" parent="1" vertex="1">
          <mxGeometry x="305" y="630" width="40" height="20" as="geometry" />
        </mxCell>
      </root>
    </mxGraphModel>
  </diagram>
</mxfile>
